<?xml version="1.0" encoding="utf-8"?>
<svg width="1000" height="200" viewBox="-67.133 -5.279 331.716 58.196" version="1.1" id="svg5" xmlns="http://www.w3.org/2000/svg" xmlns:bx="https://boxy-svg.com">
  <defs id="defs2">
    <linearGradient gradientUnits="userSpaceOnUse" x1="179.444" y1="3.273" x2="179.444" y2="4.225" id="gradient-0">
      <stop offset="0" style="stop-color: rgb(6.6667% 12.549% 32.157%)"/>
      <stop offset="1" style="stop-color: rgb(0% 8.3489% 27.065%)"/>
    </linearGradient>
    <linearGradient id="gradient-1" bx:pinned="true"/>
    <bx:export>
      <bx:file format="svg"/>
    </bx:export>
  </defs>
  <g id="layer1">
    <g aria-label="PolyTrack" id="text382" style="font-size:59.2131px;font-family:Impact;-inkscape-font-specification:Impact;fill:#28346a;stroke:#212b58;stroke-width:1.32292">
      <g id="g5117">
        <g id="g5128" transform="matrix(1,0,-0.19146517,1,7.8303099,0)">
          <rect style="font-size: 59.2131px; font-family: Impact; fill-opacity: 1; stroke-width: 0.37098; stroke-dasharray: none; stroke-opacity: 1; fill: url(&quot;#gradient-0&quot;); paint-order: fill; stroke: rgb(186, 218, 85);" id="rect19982-1" width="72.351089" height="0.95230049" x="143.26874" y="3.2728517" transform="matrix(1,0,0.18804934,0.98215958,0,0)"/>
          <rect style="font-size: 59.2131px; font-family: Impact; fill: rgb(17, 32, 82); fill-opacity: 1; stroke-width: 0.372483; stroke-dasharray: none; stroke-opacity: 1; stroke: rgb(186, 218, 85);" id="rect19982-1-3" width="72.938583" height="0.95230049" x="142.6154" y="7.2492614" transform="matrix(1,0,0.18804934,0.98215958,0,0)"/>
          <g id="g872" transform="matrix(0.07480357,0,0.01424868,0.07441914,212.37131,-1.9847472)" style="fill:#b3c1ff;fill-opacity:1">
            <rect y="122.35137" x="24.190477" height="12.567708" width="24.072357" id="rect827" style="opacity: 1; fill-opacity: 1; stroke: none; stroke-width: 10; stroke-linecap: square; stroke-linejoin: bevel; stroke-miterlimit: 4; stroke-dasharray: none; stroke-opacity: 1; paint-order: stroke; fill: rgb(26, 96, 0);"/>
            <rect y="118.76457" x="128.67104" height="12.567708" width="24.072357" id="rect827-6" style="opacity: 1; fill-opacity: 1; stroke: none; stroke-width: 10; stroke-linecap: square; stroke-linejoin: bevel; stroke-miterlimit: 4; stroke-dasharray: none; stroke-opacity: 1; paint-order: stroke; fill: rgb(26, 96, 0);"/>
            <path id="path844" d="m 20.938897,104.1713 h -2.296848 v 2.40751 h 2.3052 v 6.76526 h 5.220108 v 7.36547 h 6.468523 v -7.27604 h 2.303293 v 8.97693 h 2.385976 v -8.98874 h 10.370722 l 11.221167,11.62277 49.514882,2.83481 4.74832,-14.62295 26.46809,-4.04657 v 9.68852 h 2.23838 v -10.02261 l 2.05135,-0.30861 v 5.23261 h 6.45116 v -7.43801 l 1.52845,-0.55124 2.3e-4,-6.841554 -1.52845,-0.55124 v -7.438007 h -6.45116 v 5.232607 l -2.05135,-0.30861 V 85.880999 h -2.23838 v 9.688517 l -26.46809,-4.04657 -4.74832,-14.622944 -49.514867,2.834807 -11.22117,11.622767 H 37.325392 v -8.988737 h -2.385976 v 8.976927 H 32.636123 V 84.069729 H 26.1676 v 7.365467 h -5.220108 v 6.76526 h -2.3052 v 2.407514 h 2.296848 z" style="fill-opacity: 1; stroke: none; stroke-width: 0.264583px; stroke-linecap: butt; stroke-linejoin: miter; stroke-opacity: 1; fill: rgb(26, 96, 0);"/>
            <rect transform="scale(1,-1)" y="-82.427887" x="24.155148" height="12.567708" width="24.072357" id="rect827-9" style="opacity: 1; fill-opacity: 1; stroke: none; stroke-width: 10; stroke-linecap: square; stroke-linejoin: bevel; stroke-miterlimit: 4; stroke-dasharray: none; stroke-opacity: 1; paint-order: stroke; fill: rgb(26, 96, 0);"/>
            <rect transform="scale(1,-1)" y="-86.014694" x="128.63574" height="12.567708" width="24.072357" id="rect827-6-8" style="opacity: 1; fill-opacity: 1; stroke: none; stroke-width: 10; stroke-linecap: square; stroke-linejoin: bevel; stroke-miterlimit: 4; stroke-dasharray: none; stroke-opacity: 1; paint-order: stroke; fill: rgb(26, 96, 0);"/>
          </g>
          <path id="path4993" style="font-family: &quot;FORCED SQUARE&quot;; fill-opacity: 1; stroke-width: 1.40413; stroke-dasharray: none; stroke-opacity: 1; stroke: rgb(0, 0, 0); fill: rgb(157, 0, 255);" d="M 231.16884 2.0294248 L 231.93804999999998 38.725166 L 238.04675999999998 38.725166 L 237.83061999999998 28.402165000000004 L 241.56716999999998 28.402165000000004 L 250.91685999999999 38.725166 L 256.61044 38.725166 L 256.53794 35.261691 L 247.12471 24.739331999999997 L 256.10254 14.483170999999997 L 256.03004 11.020276999999997 L 250.57351999999997 11.020276999999997 L 241.41893999999996 21.342696999999994 L 237.6824 21.342696999999994 L 237.27808 2.0294248 L 231.16884 2.0294248 Z"/>
          <path id="path4993" style="font-family: &quot;FORCED SQUARE&quot;; fill-opacity: 1; stroke-width: 1.40413; stroke-dasharray: none; stroke-opacity: 1; stroke: rgb(0, 0, 0); fill: rgb(157, 0, 255);" d="M 175.83786 27.66983 L 188.05526 27.66983 L 188.15558000000001 32.464875 L 175.93814 32.464875 L 175.83786 27.66983 Z M 169.14139999999998 10.953443 L 169.27814999999998 17.479931999999998 L 187.84183 17.479931999999998 L 187.93662999999998 22.008778 L 169.37295999999998 22.008778 L 169.72172999999998 38.658333 L 194.63115999999997 38.658333 L 194.05081999999996 10.953443 L 169.14139999999998 10.953443 Z"/>
          <path id="path4993" style="font-family: &quot;FORCED SQUARE&quot;; fill-opacity: 1; stroke-width: 1.40413; stroke-dasharray: none; stroke-opacity: 1; stroke: rgb(0, 0, 0); fill: rgb(255, 83, 0);" d="M 82.433082 11.02028 L 83.01399599999999 38.725169 L 99.02747199999999 38.725169 L 92.70895599999999 45.717796 L 92.80240599999999 50.179801 L 97.60676199999999 50.179801 L 107.68638 38.725169 L 107.10598 11.02028 L 100.99676000000001 11.02028 L 101.43357 31.86564 L 88.979109 31.86564 L 88.542301 11.02028 L 82.433082 11.02028 Z"/>
          <path id="path4993" style="font-family: &quot;FORCED SQUARE&quot;; fill-opacity: 1; stroke-width: 1.40413; stroke-dasharray: none; stroke-opacity: 1; stroke: rgb(0, 0, 0); fill: rgb(255, 83, 0);" d="M 22.773 11.02 L 23.354 38.725 L 48.264 38.725 L 47.683 11.02 L 22.773 11.02 Z M 29.263 17.88 L 41.481 17.88 L 41.774 31.866 L 29.556 31.866 L 29.263 17.88 Z"/>
          <path id="path4993" style="font-family: &quot;FORCED SQUARE&quot;; fill-opacity: 1; stroke-width: 1.40413; stroke-dasharray: none; stroke-opacity: 1; stroke: rgb(0, 0, 0); fill: rgb(157, 0, 255);" d="M 200.21495 10.753504 L 200.79945999999998 38.658333 L 225.70941 38.658333 L 225.5599 31.532607 L 206.99621 31.532607 L 206.70892999999998 17.812970999999997 L 225.27262 17.812970999999997 L 225.12438999999998 10.753503999999998 L 200.21495 10.753504 Z"/>
          <path id="path4993" style="font-family: &quot;FORCED SQUARE&quot;; fill-opacity: 1; stroke-width: 1.40413; stroke-dasharray: none; stroke-opacity: 1; stroke: rgb(0, 0, 0); fill: rgb(157, 0, 255);" d="M 144.11431 11.020282 L 144.69471 38.725172 L 151.04099 38.725172 L 150.60417 17.87981 L 157.36506 17.87981 L 157.50916 24.739338 L 163.85491000000002 24.739338 L 163.56774000000001 11.020282 L 144.11431 11.020282 Z"/>
          <path id="path4993" style="font-family: &quot;FORCED SQUARE&quot;; fill-opacity: 1; stroke-width: 1.40413; stroke-dasharray: none; stroke-opacity: 1; stroke: rgb(0, 0, 0); fill: rgb(157, 0, 255);" d="M 113.18359 3.8939758 L 113.33322 11.020282 L 125.55063 11.020282 L 126.13153 38.725172 L 132.47729999999999 38.725172 L 131.89691 11.020282000000002 L 144.11431 11.020282000000002 L 143.96518999999998 3.8939758000000015 L 113.18359 3.8939758 Z"/>
          <path id="path4993" style="font-family: &quot;FORCED SQUARE&quot;; fill-opacity: 1; stroke-width: 1.40413; stroke-dasharray: none; stroke-opacity: 1; stroke: rgb(0, 0, 0); fill: rgb(255, 83, 0);" d="M -35.214 10.954 L -34.53 38.725 L -28.807 38.725 L -29.082 27.574 L -11.032 27.574 L -11.44 10.954 L -35.214 10.954 Z M -29.351 16.635 L -17.246 16.635 L -17.111 22.105 L -29.216 22.105 L -29.351 16.635 Z"/>
          <path id="path4993" style="font-family: &quot;FORCED SQUARE&quot;; fill-opacity: 1; stroke-width: 1.40413; stroke-dasharray: none; stroke-opacity: 1; stroke: rgb(0, 0, 0); fill: rgb(255, 83, 0);" d="M -6.809 10.993 L -6.228 38.698 L 18.682 38.698 L 18.101 10.993 L -6.809 10.993 Z M -0.319 17.853 L 11.899 17.853 L 12.192 31.839 L -0.026 31.839 L -0.319 17.853 Z"/>
          <path id="path4993" style="font-family: &quot;FORCED SQUARE&quot;; fill-opacity: 1; stroke-width: 1.40413; stroke-dasharray: none; stroke-opacity: 1; stroke: rgb(0, 0, 0); fill: rgb(255, 83, 0);" d="M 52.157 2.029 L 52.926 38.725 L 59.035 38.725 L 58.819 28.402 L 62.555 28.402 L 71.905 38.725 L 77.599 38.725 L 77.526 35.262 L 68.113 24.739 L 77.091 14.483 L 77.018 11.02 L 71.562 11.02 L 62.407 21.343 L 58.671 21.343 L 58.266 2.029 L 52.157 2.029 Z"/>
          <path id="path4993" style="font-family: &quot;FORCED SQUARE&quot;; fill-opacity: 1; stroke-width: 1.40413; stroke-dasharray: none; stroke-opacity: 1; stroke: rgb(0, 0, 0); fill: rgb(255, 83, 0);" d="M -64.74 3.892 L -64.618 11.019 L -64.369 24.923 L -44.866 25.02 L -44.664 33.196 L -64.164 33.126 L -64.155 38.724 L -38.733 38.724 L -38.822 33.529 L -39.183 19.047 L -58.385 19.018 L -58.542 9.98 L -39.465 9.98 L -39.536 3.892 L -64.74 3.892 Z"/>
        </g>
      </g>
    </g>
  </g>
</svg>